<?xml version="1.0" encoding="utf-8"?>
<!-- Generator: Adobe Illustrator 24.3.0, SVG Export Plug-In . SVG Version: 6.00 Build 0)  -->
<svg version="1.1" id="Layer_1" xmlns="http://www.w3.org/2000/svg" xmlns:xlink="http://www.w3.org/1999/xlink" x="0px" y="0px"
	 viewBox="0 0 512 512" style="enable-background:new 0 0 512 512;" xml:space="preserve">
<style type="text/css">
	.st0{fill:#0059A9;}
	.st1{fill:#81C240;}
</style>
<g id="XMLID_1_">
	<path id="XMLID_3_" class="st0" d="M122.25,37.67c39.4-24.4,85.53-37.44,131.8-37.72c0,38.42,0.14,76.84,0,115.12
		c-33.09,0.42-65.76,12.9-90.58,34.77c-23.56,20.47-40.1,49.08-45.85,79.78c-5.05,26.92-2.24,55.24,8.27,80.48
		c12.2,29.73,35.05,54.96,63.38,70.11c19.77,10.66,42.2,16.41,64.64,16.83c0,38.42,0,76.7,0,115.12
		c-52.3-0.28-104.32-17.11-146.81-47.67c-28.88-20.75-53.42-47.39-71.51-77.96C13.72,349.78,1.38,307.44,0.12,264.67
		c-1.4-41.08,7.15-82.45,24.96-119.46C46.39,101.04,80.46,63.18,122.25,37.67z"/>
	<path id="XMLID_4_" class="st1" d="M276.2,0.79c34.77,2.52,68.85,12.48,99.55,28.88c52.86,27.9,95.35,74.87,117.64,130.4
		c1.4,3.37,2.66,6.73,3.65,10.24c-41.08,0-82.17,0-123.25,0c-2.52-0.14-5.89,0.84-7.43-1.96c-4.91-6.45-10.66-12.06-16.55-17.53
		c-20.47-18.37-46.41-30.15-73.47-34.35C276.06,77.91,276.2,39.35,276.2,0.79z"/>
	<path id="XMLID_5_" class="st1" d="M276.2,217.14c77.68-0.14,155.22,0,232.9,0c6.45,43.61,2.1,88.76-13.74,129.98
		c-14.44,37.86-37.86,72.35-68.14,99.41c-41.36,37.44-95.35,60.85-151.01,64.78c0-38.56-0.14-76.98,0-115.54
		c30.29-4.49,59.03-18.93,80.48-40.94c5.05-5.19,9.96-10.66,13.88-16.83c-31.41-0.28-62.82-0.28-94.22-0.14
		C276.2,297.48,276.2,257.24,276.2,217.14z"/>
</g>
</svg>
